<svg xmlns="http://www.w3.org/2000/svg" width="34" height="30" viewBox="0 0 34 30">
  <g fill="#FFF" fill-rule="evenodd">
    <path d="M28,29 C28,29 28,27.00625 27.8395833,25.9640625 C27.7083333,25.1408854 26.6072917,24.0533854 21.9260417,22.2710938 C17.3177083,20.5190104 17.6020833,21.3723958 17.6020833,18.1476563 C17.6020833,16.0557292 18.6302083,17.2716146 19.2864583,13.2992188 C19.5416667,11.7359375 19.7458333,12.778125 20.3,10.2708333 C20.5916667,8.95677083 20.103125,8.85859375 20.1614583,8.23177083 C20.2197917,7.60494792 20.278125,7.04609375 20.3875,5.76223958 C20.51875,4.17630208 19.096875,0 14,0 C8.903125,0 7.48125,4.17630208 7.61979167,5.76979167 C7.72916667,7.04609375 7.7875,7.6125 7.84583333,8.23932292 C7.90416667,8.86614583 7.415625,8.96432292 7.70729167,10.2783854 C8.26145833,12.778125 8.465625,11.7359375 8.72083333,13.3067708 C9.37708333,17.2791667 10.4052083,16.0632813 10.4052083,18.1552083 C10.4052083,21.3875 10.6895833,20.5341146 6.08125,22.2786458 C1.4,24.0533854 0.291666667,25.1484375 0.167708333,25.9716146 C0,27.00625 0,29 0,29 L14,29 L28,29 Z" transform="translate(5.819 .455)"/>
    <path d="M18.0550292,0.579869631 C17.4950371,0.345905964 16.8907972,0.236901798 16.2843986,0.260449919 C15.1326292,0.260449919 13.2711341,0.545470586 10.9528605,1.90177583 C10.2873391,2.2924507 9.35413575,2.98043162 8.52898752,3.58732908 C8.02554887,3.95834736 7.58841677,4.28022414 7.31827896,4.45467645 C6.95404677,4.70900206 6.53185746,4.86782775 6.0903798,4.91660649 L6.05354283,4.91660649 C6.04641489,4.72102846 6.05792729,4.5252158 6.087924,4.33182271 C6.10511459,4.19422653 6.11984938,4.0517162 6.12967257,3.91166294 C6.17379614,3.14132605 6.1334441,2.36847108 6.00933846,1.60692686 C5.98232468,1.38333306 5.89391594,0.847690775 5.64833611,0.606897453 C5.28487796,0.243250396 3.70825544,0.16708108 3.41355965,0.16708108 C3.39145746,0.16708108 1.18123899,0.186737678 0.690079324,0.606897453 C0.198919663,1.02705723 0.100687731,3.5553871 0.270137814,5.02963193 C0.471513275,6.8011828 1.16895999,7.88229567 2.53192805,8.53096339 C3.1699113,8.80681421 3.86083878,8.9385278 4.55550586,8.91672412 C5.47399566,8.91223989 6.38589835,8.76128303 7.256884,8.46953652 C8.63704265,7.99532111 9.95826214,6.77415497 10.8398937,5.8969793 C11.2008961,5.53333225 11.542252,5.15985689 11.871329,4.81340936 C12.2789915,4.37359298 12.6645519,3.95834736 12.9960846,3.65858424 C13.5559009,3.17031709 14.2058004,2.79636804 14.9091515,2.55781477 C15.4348102,2.35987275 15.9851305,2.23503559 16.5447132,2.18679649 C16.7077735,2.16829852 16.8717685,2.15927411 17.0358729,2.15976867 C17.2558114,2.15565343 17.475576,2.1745943 17.691571,2.21628139 C17.7719265,2.23607276 17.8543966,2.24597431 17.9371508,2.24576628 C18.2898636,2.27362272 18.6125636,2.04668694 18.7058157,1.70520985 C18.799136,1.282593 18.4479569,0.778892683 18.0550292,0.579869631 Z" transform="translate(.364 14.274)"/>
  </g>
</svg>
