<svg xmlns="http://www.w3.org/2000/svg" width="37" height="35" viewBox="0 0 37 35">
  <g fill="none" fill-rule="evenodd">
    <g fill="#FFF" transform="translate(13.545 .182)">
      <path d="M23.3963636,32.6254545 L22.3054545,10.9418182 C22.2587745,9.92369465 21.4191925,9.12256681 20.4,9.12363636 L17.2545455,9.12363636 L16.4363636,3.94545455 C16.0748699,1.67525461 14.1169827,0.0044639802 11.8181818,0.0044639802 C9.51938094,0.0044639802 7.56149376,1.67525461 7.2,3.94545455 L6.38181818,9.12727273 L3.23272727,9.12727273 C2.21353474,9.12620317 1.37395277,9.92733101 1.32727273,10.9454545 L0.236363636,32.6290909 C0.210487033,33.1509557 0.399637588,33.6606201 0.759711861,34.0392478 C1.11978613,34.4178755 1.61931239,34.6323732 2.14181818,34.6327273 L21.4909091,34.6327273 C22.0140793,34.6324231 22.5142011,34.41743 22.8743898,34.0379946 C23.2345785,33.6585591 23.4232696,33.1479325 23.3963636,32.6254545 Z M13.7963636,4.36363636 L14.5454545,9.12727273 L9.09090909,9.12727273 L9.84,4.36363636 C9.98594912,3.38365892 10.8273958,2.65824915 11.8181818,2.65824915 C12.8089678,2.65824915 13.6504145,3.38365892 13.7963636,4.36363636 Z M5.96,11.8036364 L5.93454545,11.9709091 C5.85984445,12.4431493 6.042755,12.9193697 6.41437648,13.2201827 C6.78599797,13.5209958 7.28987222,13.6007008 7.7361947,13.4292736 C8.18251717,13.2578465 8.50348085,12.8613311 8.57818182,12.3890909 L8.66909091,11.8072727 L14.9709091,11.8072727 L15.0618182,12.3927273 C15.1772959,13.1227473 15.8627073,13.6209322 16.5927273,13.5054545 C17.3227473,13.3899768 17.8209322,12.7045655 17.7054545,11.9745455 L17.68,11.8072727 L19.6763636,11.8072727 L20.6836364,31.9563636 L2.95272727,31.9563636 L3.96,11.8072727 L5.95636364,11.8072727 L5.96,11.8036364 Z"/>
      <path d="M14.6972727,27.1795455 C14.6964215,27.1331727 14.6786375,27.0887128 14.6472727,27.0545455 C14.6772727,27.1345455 14.6972727,27.1795455 14.6972727,27.1795455 Z"/>
      <polygon points="11.782 25.24 11.742 25.24 11.787 25.24 11.787 25.24"/>
      <path d="M11.8840909,25.2836364 C11.7578053,25.2633992 11.6326408,25.2366974 11.5090909,25.2036364 C11.5993728,25.1281557 11.6964544,25.0612028 11.7990909,25.0036364 L11.9140909,25.1836364 C11.9040909,25.2236364 11.8940909,25.2536364 11.8840909,25.2836364 Z"/>
      <path d="M17.2,23.6363636 C17.04,23.6363636 15.9672727,23.6363636 15.1054545,23.7309091 C15.7559337,22.9713939 16.2635151,22.1003744 16.6036364,21.16 C16.7638869,20.7110913 16.9672616,20.2787679 17.2109091,19.8690909 L17.3163636,19.6909091 C17.4367771,19.4905132 17.3825437,19.2311895 17.191915,19.0958431 C17.0012863,18.9604968 16.7385817,18.9947945 16.5890909,19.1745455 C16.1134346,19.7147845 15.5722933,20.1936274 14.9781818,20.6 C14.286886,20.9875983 13.6789012,21.5078455 13.1890909,22.1309091 C13.1890909,22.0181818 13.2145455,21.8909091 13.2254545,21.7345455 C13.2947028,20.5437868 13.138007,19.3506782 12.7636364,18.2181818 C12.5760461,17.699634 12.4538904,17.1597058 12.4,16.6109091 C12.378445,16.4074145 12.2215365,16.2445003 12.0189947,16.2153205 C11.8164528,16.1861408 11.6199384,16.2981382 11.5418182,16.4872727 C11.0423146,17.7407501 10.6624425,19.0386466 10.4072727,20.3636364 C10.3374848,20.8466991 10.34608,21.3378567 10.4327273,21.8181818 C10.3115152,21.6824242 10.1793939,21.5430303 10.0363636,21.4 C9.05818182,20.4327273 7.27272727,19.6363636 7.17818182,19.6 C6.98554307,19.5180257 6.76181611,19.5806433 6.63971891,19.7507073 C6.51762171,19.9207712 6.52982554,20.1527751 6.66909091,20.3090909 C6.99655592,20.7331227 7.29656236,21.1776666 7.56727273,21.64 C7.88363636,22.1454545 8.21454545,22.6690909 8.53454545,23.12 C8.74285797,23.4060582 8.98731205,23.6639573 9.26181818,23.8872727 C9.04,23.8509091 8.79272727,23.8254545 8.51272727,23.8072727 L6.81090909,23.6981818 C6.69295551,23.6892042 6.57635548,23.7281001 6.48741443,23.8060946 C6.39847338,23.8840891 6.34468416,23.9946114 6.33818182,24.1127273 C6.32449945,24.3161522 6.45011899,24.503086 6.64363636,24.5672727 C6.69090909,24.5854545 6.93454545,24.6981818 7.93818182,25.2290909 C8.41195066,25.4892016 8.92364382,25.6732639 9.45454545,25.7745455 C9.25661955,25.9600334 9.07078418,26.1580149 8.89818182,26.3672727 C8.66897517,26.5824812 8.53761871,26.8819739 8.53454545,27.1963636 C8.54518757,27.3391712 8.61506779,27.4710207 8.72727273,27.56 C8.80536619,27.6205477 8.90118704,27.6537656 9,27.6545455 C9.04835663,27.6539777 9.09628255,27.6453756 9.14181818,27.6290909 C9.2816545,27.5813564 9.38819486,27.4666206 9.42545455,27.3236364 C9.45454545,27.2545455 9.6,27.0945455 10.2654545,26.7818182 C10.7454407,26.5092872 11.1797925,26.1632782 11.5527273,25.7563636 C11.590377,25.7687604 11.6295076,25.7760974 11.6690909,25.7781818 L11.6690909,25.7781818 C11.7902662,25.9745313 11.9528374,26.1420665 12.1454545,26.2690909 L12.3163636,26.3709091 C12.5432092,26.5210535 12.7874135,26.6431556 13.0436364,26.7345455 C13.4677886,26.8828404 13.8730029,27.0805655 14.2509091,27.3236364 C14.3252815,27.5160308 14.5215796,27.6326149 14.7261063,27.6058624 C14.930633,27.57911 15.0903413,27.4159597 15.1127273,27.2109091 C15.1257033,27.0828083 15.0935503,26.9541965 15.0218182,26.8472727 C14.8910672,26.5761389 14.713845,26.329997 14.4981818,26.12 C14.4327273,26.0581818 14.36,25.9890909 14.2763636,25.9163636 C14.4239937,25.8941922 14.5698281,25.8613794 14.7127273,25.8181818 C15.1641694,25.6336669 15.5955136,25.403373 16,25.1309091 C16.3730883,24.8632938 16.7886016,24.6604545 17.2290909,24.5309091 C17.4761128,24.5228759 17.6698514,24.3161128 17.6618182,24.0690909 C17.6537849,23.822069 17.4470219,23.6283304 17.2,23.6363636 L17.2,23.6363636 Z M15.5890909,21.28 L15.5672727,21.28 L15.6,21.2618182 L15.5890909,21.28 Z"/>
    </g>
    <path stroke="#FFF" stroke-width="2" d="M10.2367699 16L3.36363636 16M10.2367699 27L3.36363636 27M10.3272718 21L.579528486 21"/>
  </g>
</svg>
