<svg xmlns="http://www.w3.org/2000/svg" width="15" height="16" viewBox="0 0 15 16">
  <path fill="#0A0B0B" fill-rule="evenodd" d="M375.369329,374.109374 C375.171535,374.109374 373.845413,374.109374 372.780021,374.22643 C373.584153,373.28608 374.211633,372.207677 374.632095,371.043407 C374.8302,370.487616 375.081614,369.95236 375.382815,369.445142 L375.513179,369.224536 C375.662036,368.976427 375.594992,368.655361 375.359334,368.487789 C375.123676,368.320218 374.798917,368.362682 374.614114,368.58523 C374.026101,369.254096 373.357134,369.846948 372.622685,370.350075 C371.768095,370.829957 371.016495,371.474072 370.410984,372.245482 C370.410984,372.105915 370.442452,371.94834 370.455938,371.754747 C370.541543,370.280478 370.347834,368.803299 369.885031,367.401163 C369.653129,366.759153 369.502119,366.090672 369.435499,365.411211 C369.408852,365.159266 369.214879,364.957563 368.964494,364.921436 C368.714109,364.885308 368.471175,365.023972 368.374602,365.258138 C367.757108,366.810059 367.287504,368.416975 366.97206,370.057435 C366.885787,370.655511 366.896413,371.26361 367.003527,371.858297 C366.853683,371.690216 366.690353,371.517634 366.513537,371.340549 C365.304294,370.142976 363.097089,369.157004 362.98021,369.111982 C362.742067,369.01049 362.465493,369.088017 362.314555,369.298572 C362.163616,369.509127 362.178703,369.796369 362.350865,369.989902 C362.755682,370.514893 363.126554,371.06528 363.46121,371.637691 C363.852304,372.263491 364.261378,372.911801 364.656967,373.470068 C364.914486,373.824235 365.216684,374.143538 365.556032,374.420023 C365.281817,374.375001 364.976135,374.343486 364.629995,374.320976 L362.526182,374.185911 C362.380366,374.174796 362.236224,374.222953 362.126274,374.319517 C362.016323,374.416081 361.949828,374.552918 361.94179,374.699157 C361.924876,374.951015 362.080168,375.182457 362.319397,375.261926 C362.377837,375.284437 362.679023,375.424003 363.919733,376.081318 C364.505413,376.403359 365.137976,376.631245 365.794284,376.756641 C365.549606,376.986293 365.319873,377.231412 365.1065,377.490493 C364.823151,377.756941 364.660766,378.12774 364.656967,378.516984 C364.670123,378.693793 364.75651,378.857035 364.895219,378.967199 C364.99176,379.042163 365.110215,379.08329 365.232369,379.084255 C365.292148,379.083552 365.351395,379.072902 365.407686,379.05274 C365.580554,378.993641 365.712261,378.851587 365.758322,378.674559 C365.794284,378.589018 365.974097,378.390924 366.796742,378.003738 C367.390108,377.66632 367.92706,377.237928 368.388088,376.734131 C368.434631,376.749479 368.483005,376.758563 368.531938,376.761143 L368.531938,376.761143 C368.681737,377.004242 368.88271,377.211666 369.120826,377.368934 L369.332106,377.494995 C369.612536,377.680887 369.914425,377.832061 370.231171,377.94521 C370.755514,378.128813 371.256446,378.373615 371.72362,378.674559 C371.81556,378.912761 372.058226,379.057103 372.311065,379.023981 C372.563904,378.990859 372.761338,378.788864 372.789012,378.534992 C372.805053,378.376392 372.765305,378.217159 372.676629,378.084777 C372.514992,377.749088 372.295908,377.444342 372.029302,377.184346 C371.948386,377.107809 371.858479,377.022268 371.755087,376.932225 C371.937589,376.904775 372.117872,376.86415 372.294526,376.810667 C372.852605,376.582221 373.385839,376.297095 373.885871,375.95976 C374.347089,375.628427 374.860752,375.377294 375.405292,375.216904 C375.710664,375.206958 375.950166,374.950967 375.940235,374.645131 C375.930305,374.339295 375.674701,374.099428 375.369329,374.109374 L375.369329,374.109374 Z M373.3779,371.191978 L373.350928,371.191978 L373.391385,371.169467 L373.3779,371.191978 Z" transform="translate(-361 -364)"/>
</svg>
