<svg xmlns="http://www.w3.org/2000/svg" width="32" height="28" viewBox="0 0 32 28">
  <path fill="#FFF" fill-rule="evenodd" d="M31.3955556,25.12 L27.3580247,19.52 L31.0716049,14.4 C31.5289534,13.7050638 31.364689,12.7687148 30.6989478,12.2757594 C30.0332067,11.782804 29.1021294,11.9080951 28.5866667,12.56 L25.4498765,16.888 L21.3609877,11.228 C24,10.828 26.0306173,9.628 27.0261728,7.824 C27.9068373,6.26045917 27.7873489,4.31689088 26.7219753,2.876 C25.8449383,1.656 24.4108642,0.776 22.5698765,0.332 C20.6459259,-0.132 18.3545679,-0.108 15.7511111,0.4 C15.2291126,0.509775899 14.8002606,0.884984095 14.617284,1.392 L9.66716049,1.392 C8.84759895,1.43405932 8.20441318,2.11912871 8.20441318,2.95 C8.20441318,3.78087129 8.84759895,4.46594068 9.66716049,4.508 L13.7402469,4.508 L13.1120988,6.8 L6.58567901,6.8 C5.76611747,6.84205932 5.1229317,7.52712871 5.1229317,8.358 C5.1229317,9.18887129 5.76611747,9.87394068 6.58567901,9.916 L12.2469136,9.916 L11.4923457,12.668 L1.97530864,12.668 C1.40695783,12.6388326 0.869007311,12.9292419 0.576188545,13.4233063 C0.28336978,13.9173707 0.28336978,14.5346293 0.576188545,15.0286937 C0.869007311,15.5227581 1.40695783,15.8131674 1.97530864,15.784 L10.6666667,15.784 L10.4809877,16.46 C10.3569599,17.2443634 10.8348522,17.9978376 11.5909064,18.2099655 C12.3469605,18.4220933 13.1397139,18.0251271 13.4320988,17.288 L17.2681481,3.288 C21.2187654,2.708 23.4824691,3.648 24.2330864,4.692 C24.5909775,5.15244775 24.6318116,5.78851745 24.3358025,6.292 C23.442963,7.928 20.6419753,8.34 18.5125926,8.196 C17.9154891,8.15569905 17.3493496,8.46911237 17.0605981,8.99982027 C16.7718466,9.53052816 16.8127219,10.182519 17.1654321,10.672 L23.5417284,19.528 L19.5041975,25.128 C19.1501453,25.5757693 19.067341,26.1841444 19.2885785,26.7121846 C19.509816,27.2402248 19.999405,27.6027464 20.563449,27.6561765 C21.127493,27.7096067 21.6750001,27.445326 21.9891358,26.968 L25.4498765,22.168 L28.9106173,26.968 C29.4146283,27.6627742 30.3794823,27.8123111 31.065679,27.302 C31.7518758,26.7916889 31.8995665,25.8147742 31.3955556,25.12 L31.3955556,25.12 Z"/>
</svg>
