<svg xmlns="http://www.w3.org/2000/svg" width="25" height="32" viewBox="0 0 25 32">
  <path fill="#FFF" fill-rule="evenodd" d="M33.76,37.06 C34.6000042,37.0119998 35.1939983,36.8680012 35.542,36.628 C35.8900017,36.3879988 36.064,36.0760019 36.064,35.692 L36.064,35.62 C36.064,35.2359981 35.9080016,34.9360011 35.596,34.72 C35.2839984,34.5039989 34.6720046,34.3120008 33.76,34.144 L33.76,37.06 Z M30.448,23.74 C29.5599956,23.7640001 28.9360018,23.9019987 28.576,24.154 C28.2159982,24.4060013 28.036,24.7119982 28.036,25.072 L28.036,25.144 C28.036,25.5280019 28.2039983,25.8339989 28.54,26.062 C28.8760017,26.2900011 29.5119953,26.4879992 30.448,26.656 L30.448,23.74 Z M30.16,42.964 C28.1439899,42.7959992 26.2000094,42.4000031 24.328,41.776 C22.4559906,41.1519969 20.7520077,40.3120053 19.216,39.256 L22.888,33.82 C24.2320067,34.6840043 25.5279938,35.3559976 26.776,35.836 C28.0240062,36.3160024 29.2239942,36.6399992 30.376,36.808 L30.376,33.82 C28.7919921,33.5079984 27.3940061,33.1420021 26.182,32.722 C24.9699939,32.3019979 23.9560041,31.7800031 23.14,31.156 C22.3239959,30.5319969 21.7060021,29.7940043 21.286,28.942 C20.8659979,28.0899957 20.656,27.0760059 20.656,25.9 L20.656,25.828 C20.656,24.7239945 20.853998,23.6920048 21.25,22.732 C21.646002,21.7719952 22.245996,20.9380035 23.05,20.23 C23.854004,19.5219965 24.8619939,18.9520022 26.074,18.52 C27.2860061,18.0879978 28.695992,17.8360004 30.304,17.764 L30.304,15.712 L34.048,15.712 L34.048,17.872 C35.7280084,18.0400008 37.2579931,18.3759975 38.638,18.88 C40.0180069,19.3840025 41.307994,20.0199962 42.508,20.788 L39.052,26.26 C38.2839962,25.7079972 37.4440046,25.2520018 36.532,24.892 C35.6199954,24.5319982 34.7200044,24.256001 33.832,24.064 L33.832,27.016 C35.3440076,27.3040014 36.6819942,27.651998 37.846,28.06 C39.0100058,28.468002 39.993996,28.9779969 40.798,29.59 C41.602004,30.2020031 42.2139979,30.9459956 42.634,31.822 C43.0540021,32.6980044 43.264,33.7479939 43.264,34.972 L43.264,35.044 C43.264,36.244006 43.0420022,37.3119953 42.598,38.248 C42.1539978,39.1840047 41.5240041,39.9819967 40.708,40.642 C39.8919959,41.3020033 38.9080058,41.835998 37.756,42.244 C36.6039942,42.652002 35.3200071,42.9039995 33.904,43 L33.904,46.528 L30.16,46.528 L30.16,42.964 Z" transform="translate(-19 -15)"/>
</svg>
