<svg width="24" height="24" viewBox="0 0 24 24" xmlns="http://www.w3.org/2000/svg">
  <path fill="#6F6F6F" d="M16.7128469,14.7073053 L15.6499098,14.7073053 L15.2822272,14.3396226 C16.5925144,12.8220961 17.3813608,10.8499802 17.3813608,8.69068039 C17.3813608,3.89075076 13.49061,0 8.69068039,0 C3.89075076,0 0,3.89075076 0,8.69068039 C0,13.49061 3.89075076,17.3813608 8.69068039,17.3813608 C10.8499802,17.3813608 12.8220961,16.5925144 14.3396226,15.2889123 L14.7073053,15.656595 L14.7073053,16.7128469 L21.392444,23.3846154 L23.3846154,21.392444 L16.7128469,14.7073053 Z M8.69068039,14.7073053 C5.36816642,14.7073053 2.6740555,12.0131944 2.6740555,8.69068039 C2.6740555,5.36816642 5.36816642,2.6740555 8.69068039,2.6740555 C12.0131944,2.6740555 14.7073053,5.36816642 14.7073053,8.69068039 C14.7073053,12.0131944 12.0131944,14.7073053 8.69068039,14.7073053 Z"/>
</svg>
