<svg xmlns="http://www.w3.org/2000/svg" width="31" height="31" viewBox="0 0 31 31">
  <path fill="#FEFEFE" fill-rule="evenodd" d="M40.7903044,30.1605311 L40.7244862,30.1739857 C40.7524862,30.1558038 40.7801226,30.1394402 40.8081226,30.1212584 C40.8023044,30.1347129 40.7961226,30.1470766 40.7903044,30.1605311 M45.0448499,36.3874402 C44.6215771,36.3874402 41.7870317,36.3965311 39.5139408,36.6368947 C41.1233953,34.8154402 42.310668,32.7787129 43.4761226,29.841622 C44.3223044,27.7085311 44.6415771,27.1707129 45.082668,26.4267129 L45.3575771,25.9579857 C45.6604862,25.433622 45.5161226,24.7638038 45.0233953,24.4110766 C44.5288499,24.0590766 43.8503044,24.137622 43.450668,24.593622 C43.4292135,24.6183493 41.2172135,27.1339857 39.1913953,28.3568947 C37.3550317,29.465622 35.8957589,30.5688947 34.4663044,32.4070766 C34.5012135,32.1078038 34.5303044,31.7707129 34.5641226,31.3641675 C34.7939408,28.5983493 34.2244862,24.3325311 33.3197589,22.049622 C32.5230317,20.0387129 32.3175771,17.8227129 32.3157589,17.8005311 C32.2670317,17.2572584 31.8510317,16.8179857 31.3117589,16.7390766 C30.7681226,16.6627129 30.2473953,16.9627129 30.046668,17.469622 C29.954668,17.7030766 27.7692135,23.2347129 27.090668,27.6874402 C26.8852135,29.0339857 26.9488499,30.3412584 27.1572135,31.545622 C26.8393953,31.1838038 26.4903044,30.813622 26.1073953,30.4383493 C23.5237589,27.9023493 18.7644862,25.7878038 18.5633953,25.6990766 C18.0521226,25.4732584 17.4553953,25.6379857 17.130668,26.0899857 C16.8059408,26.5430766 16.842668,27.161622 17.218668,27.5725311 C17.7492135,28.1510766 18.6433953,29.5779857 19.5910317,31.0881675 C20.4310317,32.4274402 21.2990317,33.8114402 22.1481226,34.9965311 C22.6943044,35.7594402 23.3670317,36.4303493 24.0830317,37.0205311 C23.498668,36.9288947 22.8455771,36.8565311 22.1059408,36.8063493 C19.0364862,36.5994402 17.6281226,36.5154402 17.6121226,36.5143493 C16.9503044,36.4750766 16.4128499,36.9623493 16.366668,37.605622 C16.3273953,38.1572584 16.6735771,38.6478038 17.178668,38.8110766 C17.3015771,38.8638038 17.9441226,39.1550766 20.5997589,40.5630766 C22.0270317,41.3194402 23.3288499,41.7979857 24.5910317,42.0227129 C23.9677589,42.6045311 23.4677589,43.1663493 23.1175771,43.5903493 C22.382668,44.4819857 22.0873953,45.1590766 22.1593953,45.7852584 C22.202668,46.1587129 22.3873953,46.4950766 22.6663044,46.7078038 C22.8764862,46.8681675 23.130668,46.953622 23.3877589,46.953622 C23.5135771,46.953622 23.6401226,46.9328947 23.7630317,46.8907129 C24.1357589,46.7619857 24.4172135,46.4619857 24.5168499,46.0798038 C24.5899408,45.9019857 24.9764862,45.4783493 26.738668,44.6445311 C27.7259408,44.1772584 29.4048499,42.7841675 30.1441226,41.9328947 C30.242668,41.9638038 30.3459408,41.9823493 30.4528499,41.9867129 C30.4670317,41.9899857 30.4812135,41.9932584 30.4950317,41.9965311 C31.1503044,42.8808947 31.4975771,43.1492584 31.7524862,43.289622 C31.8913953,43.365622 32.0408499,43.4572584 32.2001226,43.5558038 C32.7012135,43.8634402 33.3244862,44.2463493 34.0975771,44.5019857 C34.9619408,44.7885311 36.7953953,45.6448947 37.2855771,46.0572584 C37.4739408,46.5645311 37.9903044,46.8739857 38.5259408,46.8158038 C39.0775771,46.7507129 39.5095771,46.3092584 39.5619408,45.7558038 C39.5833953,45.5278038 39.5543044,45.1899857 39.3190317,44.8219857 C39.0870317,44.3372584 38.6659408,43.6438038 37.9328499,42.9238038 C37.7619408,42.7565311 37.5641226,42.5754402 37.3492135,42.3878038 C37.7339408,42.3154402 38.1092135,42.217622 38.4724862,42.0939857 C39.5619408,41.7245311 40.7397589,41.0110766 41.878668,40.321622 C43.0630317,39.6041675 44.4070317,38.7910766 45.126668,38.7408947 C45.7601226,38.6965311 46.2441226,38.1590766 46.222668,37.5245311 C46.2001226,36.8903493 45.6793953,36.3874402 45.0448499,36.3874402" transform="translate(-16 -16)"/>
</svg>
