<svg xmlns="http://www.w3.org/2000/svg" width="32" height="49" viewBox="0 0 32 49">
  <path fill="#FFF" fill-rule="evenodd" d="M1.10802164,35.7677527 C0.921984838,35.2181279 0.976244758,34.3326348 1.27080303,33.1112465 C1.5653613,31.8898583 2.0149435,30.4623822 2.6195631,28.8287754 C3.22418271,27.1951687 3.92956167,25.4318159 4.73572115,23.5386641 C5.54188063,21.6455123 6.37128227,19.7371219 7.22395095,17.8134354 C8.07661962,15.8897489 8.89826984,14.0195262 9.68892626,12.2027112 C10.4795827,10.3858962 11.1694588,8.75994755 11.7585753,7.32481638 C12.3476919,5.8896852 12.7817712,4.69884954 13.0608264,3.75227366 C13.3398816,2.80569778 13.3863901,2.24081419 13.2003533,2.05760596 C12.9833104,1.87439772 13.0840788,1.66065799 13.5026616,1.41638034 C13.9212444,1.17210269 14.4483408,1.03469858 15.0839666,1.00416387 C15.7195923,0.973629166 16.3629599,1.11103328 17.0140887,1.41638034 C17.6652175,1.7217274 18.1303026,2.33241235 18.4093578,3.24845353 C18.5953946,3.88968235 18.5023776,4.88204541 18.130304,6.22557246 C17.7582304,7.56909952 17.2156312,9.1187126 16.5024901,10.8744582 C15.789349,12.6302038 14.9599474,14.5156936 14.0142603,16.5309842 C13.0685732,18.5462747 12.1151489,20.546268 11.1539588,22.5310239 C11.8050876,22.0119339 12.5337208,21.4394167 13.3398803,20.8134552 C14.1460397,20.1874938 14.9599385,19.538641 15.7816011,18.8668775 C16.6032636,18.1951139 17.4016596,17.5157269 18.1768129,16.8286961 C18.9519663,16.1416652 19.6418424,15.5080795 20.246462,14.9279201 C20.8510816,14.3477607 21.3394209,13.8210449 21.7114945,13.347757 C22.0835681,12.874469 22.2696021,12.5004245 22.2696021,12.2256122 C22.2696021,11.9507998 22.5021446,11.8744642 22.9672366,11.996603 C23.4323287,12.1187418 23.8974137,12.4011836 24.3625057,12.8439369 C24.8275977,13.2866901 25.1686601,13.8515737 25.385703,14.5386046 C25.6027459,15.2256354 25.4632204,15.9813581 24.9671223,16.8057951 C24.5950487,17.447024 24.0136924,18.072976 23.223036,18.6836702 C22.4323796,19.2943643 21.5409666,19.874515 20.5487703,20.4241397 C19.556574,20.9737644 18.5178841,21.4928466 17.4326694,21.9814019 C16.3474548,22.4699572 15.3087649,22.9127038 14.3165686,23.309655 C14.7816606,24.0119532 15.3630169,25.0043162 16.0606549,26.2867739 C16.7582929,27.5692315 17.541186,28.9814405 18.4093578,30.5234431 C19.2775295,32.0654458 20.2076996,33.630326 21.1998959,35.2181307 C22.1920921,36.8059354 23.2230306,38.2563122 24.2927422,39.5693045 C25.3624539,40.8822969 26.4321494,41.9586291 27.501861,42.7983335 C28.5715727,43.6380379 29.618014,44.073151 30.6412164,44.1036857 C30.9202716,44.1036857 31.0365428,44.3097918 30.9900336,44.7220104 C30.9435244,45.1342289 30.7342362,45.5846091 30.3621626,46.0731643 C29.990089,46.5617196 29.4629926,47.0120998 28.7808577,47.4243183 C28.0987227,47.8365369 27.2770725,48.0273759 26.3158824,47.9968412 C24.8585941,47.9663065 23.556356,47.3861558 22.409129,46.2563717 C21.2619021,45.1265876 20.2309636,43.7143786 19.3162827,42.0197024 C18.4016017,40.3250262 17.5799515,38.4929714 16.8513073,36.5234828 C16.1226632,34.5539943 15.4560413,32.6990388 14.8514217,30.9585605 C14.2468021,29.2180823 13.6887001,27.7448048 13.1770989,26.538684 C12.6654977,25.3325631 12.1461527,24.6379089 11.6190484,24.4547007 C11.1849626,24.6684436 10.8051431,24.8592827 10.4795787,25.0272236 C10.1540143,25.1951645 9.88271471,25.3554693 9.66567177,25.5081428 C8.98353683,26.9127393 8.35567204,28.2486126 7.78205856,29.5158029 C7.20844509,30.7829932 6.72785722,31.9203939 6.34028055,32.9280392 C5.95270388,33.9356845 5.67365286,34.7906434 5.50311913,35.4929417 C5.33258539,36.1952399 5.32483397,36.6837879 5.47986464,36.9586002 C5.60388918,37.2028779 5.50312075,37.4547854 5.17755635,37.7143304 C4.85199195,37.9738754 4.43341542,38.1112795 3.92181421,38.1265469 C3.410213,38.1418142 2.88311664,37.9815094 2.3405093,37.6456277 C1.79790195,37.3097459 1.38707684,36.6837938 1.10802164,35.7677527 Z"/>
</svg>
